<svg width="6" height="6" xmlns="http://www.w3.org/2000/svg"><path d="M2328 83 2322 89 2321 89 2320 90 2317 90 2316 91 2315 91 2313 93 2312 93 2311 94 2309 94 2308 95 2306 95 2305 96 2302 96 2301 97 2299 97 2298 98 2296 98 2295 99 2294 99 2293 100 2291 100 2290 101 2289 101 2287 103 2286 103 2284 105 2283 105 2282 106 2280 106 2279 107 2277 107 2275 109 2274 109 2271 112 2270 112 2269 113 2264 113 2263 112 2262 112 2261 113 2259 113 2258 114 2257 114 2256 115 2254 115 2253 116 2251 116 2250 117 2248 117 2247 118 2246 118 2245 119 2243 119 2242 120 2238 120 2237 121 2235 121 2234 122 2233 122 2232 123 2224 123 2223 124 2222 124 2221 125 2220 125 2219 126 2218 126 2217 127 2215 127 2214 128 2213 128 2212 129 2211 129 2210 130 2209 130 2208 131 2207 131 2205 133 2204 133 2202 135 2201 135 2200 136 2196 136 2195 137 2194 137 2193 138 2191 138 2190 139 2188 139 2187 140 2185 140 2184 141 2183 141 2182 142 2181 142 2180 143 2177 143 2176 144 2175 144 2174 145 2173 145 2172 146 2170 146 2168 148 2167 148 2166 149 2165 149 2164 150 2163 150 2162 151 2161 151 2160 152 2157 152 2156 153 2153 153 2152 154 2149 154 2148 155 2146 155 2145 156 2143 156 2142 157 2141 157 2140 158 2139 158 2138 159 2135 159 2134 160 2132 160 2131 161 2130 161 2129 162 2128 162 2127 163 2126 163 2125 164 2124 164 2123 165 2122 165 2121 166 2120 166 2119 167 2118 167 2117 168 2115 168 2114 169 2108 169 2107 170 2105 170 2103 172 2101 172 2100 173 2098 173 2097 174 2096 174 2095 175 2093 175 2092 176 2090 176 2089 177 2088 177 2087 178 2086 178 2085 179 2083 179 2082 180 2081 180 2080 181 2079 181 2078 182 2076 182 2075 183 2074 183 2073 184 2072 184 2071 185 2070 185 2069 186 2066 186 2065 187 2061 187 2060 188 2054 188 2053 189 2049 189 2048 190 2047 190 2046 191 2044 191 2042 193 2041 193 2040 194 2039 194 2038 195 2037 195 2036 196 2035 196 2034 197 2032 197 2031 198 2029 198 2028 199 2027 199 2025 201 2023 201 2022 202 2015 202 2014 203 2012 203 2011 204 2009 204 2008 205 2006 205 2005 206 2003 206 2002 207 2001 207 2000 208 1998 208 1997 209 1996 209 1995 210 1994 210 1993 211 1990 211 1989 212 1985 212 1984 213 1983 213 1981 215 1974 215 1973 216 1971 216 1970 217 1968 217 1967 218 1965 218 1964 219 1962 219 1961 220 1960 220 1959 221 1958 221 1956 223 1955 223 1954 224 1947 224 1946 225 1945 225 1941 229 1939 229 1938 230 1930 230 1929 231 1927 231 1926 232 1924 232 1923 233 1921 233 1920 234 1917 234 1916 235 1909 235 1908 236 1907 236 1906 237 1905 237 1903 239 1901 239 1900 240 1898 240 1897 241 1889 241 1888 242 1886 242 1885 243 1884 243 1883 244 1881 244 1880 245 1879 245 1878 246 1877 246 1876 247 1874 247 1873 248 1868 248 1867 249 1865 249 1864 250 1862 250 1861 251 1859 251 1858 252 1856 252 1855 253 1854 253 1853 254 1851 254 1850 255 1848 255 1846 257 1845 257 1844 258 1842 258 1841 259 1840 259 1839 260 1837 260 1836 261 1834 261 1833 262 1827 262 1826 263 1825 263 1824 264 1824 266 1822 268 1821 268 1820 269 1818 269 1817 268 1811 268 1810 269 1809 269 1808 270 1806 270 1805 271 1803 271 1802 272 1801 272 1799 274 1797 274 1796 275 1793 275 1792 276 1787 276 1786 277 1781 277 1780 278 1777 278 1776 279 1775 279 1774 280 1773 280 1772 281 1769 281 1768 282 1767 282 1766 283 1765 283 1764 284 1763 284 1762 285 1761 285 1760 286 1759 286 1758 287 1757 287 1756 288 1753 288 1752 289 1746 289 1745 290 1742 290 1741 291 1737 291 1736 292 1734 292 1733 293 1730 293 1729 294 1724 294 1723 295 1720 295 1718 297 1714 297 1713 298 1708 298 1707 299 1704 299 1703 300 1701 300 1700 301 1697 301 1696 302 1695 302 1694 303 1693 303 1692 304 1690 304 1689 305 1686 305 1685 306 1683 306 1682 307 1679 307 1678 308 1675 308 1674 309 1671 309 1670 310 1667 310 1666 311 1664 311 1663 312 1661 312 1660 313 1659 313 1658 314 1656 314 1655 315 1651 315 1650 316 1648 316 1647 317 1642 317 1641 318 1638 318 1637 319 1636 319 1635 320 1632 320 1631 321 1626 321 1625 322 1623 322 1622 323 1621 323 1620 324 1618 324 1617 325 1615 325 1614 326 1612 326 1611 327 1605 327 1604 328 1597 328 1596 329 1593 329 1592 330 1591 330 1587 334 1586 334 1585 335 1583 335 1582 336 1580 336 1579 337 1577 337 1576 338 1575 338 1572 341 1571 341 1570 342 1569 342 1568 343 1564 343 1563 342 1562 342 1561 341 1556 341 1555 342 1554 342 1553 343 1552 343 1551 344 1550 344 1549 345 1548 345 1547 346 1543 346 1542 347 1538 347 1537 348 1533 348 1532 349 1532 352 1529 355 1525 355 1523 353 1517 353 1516 354 1512 354 1511 355 1508 355 1507 356 1505 356 1504 357 1499 357 1498 358 1495 358 1494 359 1492 359 1491 360 1489 360 1488 361 1486 361 1485 362 1484 362 1482 364 1481 364 1478 367 1472 367 1471 368 1469 368 1468 369 1465 369 1464 370 1460 370 1459 371 1456 371 1455 372 1453 372 1452 373 1448 373 1447 374 1445 374 1444 375 1443 375 1442 376 1440 376 1439 377 1437 377 1436 378 1435 378 1434 379 1433 379 1432 380 1431 380 1430 381 1429 381 1427 383 1424 383 1423 384 1417 384 1416 385 1415 385 1414 386 1413 386 1412 387 1411 387 1410 388 1409 388 1407 390 1406 390 1405 391 1404 391 1403 392 1401 392 1400 393 1399 393 1398 394 1395 394 1394 395 1389 395 1388 396 1385 396 1384 397 1381 397 1380 398 1377 398 1376 399 1373 399 1372 400 1364 400 1363 401 1362 401 1361 402 1359 402 1358 403 1355 403 1354 404 1351 404 1350 405 1348 405 1347 406 1345 406 1343 408 1342 408 1341 409 1339 409 1338 408 1338 407 1337 406 1337 404 1338 403 1338 400 1339 399 1339 398 1338 397 1337 397 1336 396 1335 396 1330 391 1330 390 1328 388 1328 387 1324 383 1324 382 1323 381 1323 380 1319 376 1315 376 1314 375 1303 375 1301 377 1301 378 1299 380 1299 381 1297 383 1296 383 1295 384 1293 384 1292 383 1290 383 1289 384 1288 384 1286 386 1286 389 1287 390 1287 395 1286 396 1286 397 1285 398 1285 399 1284 400 1284 401 1283 402 1283 406 1282 407 1282 423 1281 424 1281 425 1278 428 1277 428 1276 429 1275 429 1274 430 1269 430 1268 429 1264 429 1264 430 1260 434 1259 434 1258 435 1256 435 1255 436 1248 436 1247 437 1245 437 1244 438 1239 438 1238 439 1235 439 1233 441 1232 441 1230 443 1228 443 1227 444 1224 444 1223 445 1220 445 1219 446 1214 446 1213 447 1212 447 1211 448 1209 448 1208 449 1204 449 1203 450 1202 450 1201 451 1199 451 1198 452 1196 452 1195 453 1194 453 1190 457 1189 457 1188 458 1187 458 1186 459 1185 459 1184 460 1183 460 1181 462 1180 462 1179 463 1178 463 1177 464 1176 464 1175 465 1170 465 1169 466 1167 466 1166 467 1165 467 1164 468 1162 468 1161 469 1159 469 1158 470 1157 470 1156 471 1155 471 1154 472 1153 472 1152 473 1151 473 1150 474 1149 474 1148 475 1146 475 1145 476 1140 476 1139 477 1136 477 1135 478 1133 478 1132 479 1130 479 1129 480 1128 480 1127 481 1126 481 1125 482 1123 482 1122 483 1120 483 1119 484 1118 484 1117 485 1115 485 1114 486 1113 486 1112 487 1111 487 1110 488 1108 488 1107 489 1104 489 1103 490 1102 490 1101 491 1100 491 1099 492 1097 492 1096 493 1091 493 1090 494 1089 494 1088 495 1086 495 1084 497 1083 497 1082 498 1080 498 1079 499 1073 499 1072 500 1071 500 1069 502 1067 502 1064 505 1063 505 1060 508 1058 508 1057 509 1055 509 1054 508 1041 508 1040 509 1039 509 1033 515 1032 515 1031 516 1028 516 1027 517 1025 517 1024 518 1021 518 1020 519 1016 519 1015 520 1012 520 1011 521 1009 521 1008 522 1006 522 1005 523 1003 523 1002 524 1000 524 999 525 997 525 995 527 994 527 993 528 992 528 991 529 989 529 988 530 987 530 986 531 984 531 983 532 981 532 980 533 976 533 975 534 971 534 970 535 969 535 966 538 965 538 964 539 962 539 961 540 959 540 958 541 957 541 956 542 954 542 953 543 948 543 947 544 945 544 943 546 943 547 942 548 941 548 939 550 938 550 937 551 932 551 931 550 929 550 928 549 927 550 925 550 924 551 923 551 922 552 920 552 919 553 918 553 917 554 914 554 913 555 906 555 904 557 903 557 901 559 900 559 897 562 895 562 894 563 890 563 889 564 888 564 887 565 886 565 885 566 884 566 883 567 882 567 881 568 879 568 878 569 876 569 875 570 874 570 873 571 871 571 870 572 868 572 867 573 866 573 862 577 860 577 859 578 852 578 851 579 848 579 847 580 844 580 843 581 840 581 839 582 838 582 837 583 836 583 835 584 832 584 831 585 830 585 828 587 827 587 826 588 824 588 823 589 822 589 821 590 819 590 818 591 813 591 812 592 808 592 807 593 804 593 803 594 800 594 799 595 798 595 797 596 795 596 794 597 791 597 790 598 788 598 787 599 786 599 785 600 784 600 783 601 781 601 780 602 776 602 775 603 772 603 771 604 768 604 767 605 765 605 764 606 763 606 762 607 760 607 759 608 758 608 757 609 756 609 755 610 754 610 753 611 750 611 749 612 748 612 747 613 745 613 744 614 737 614 736 615 728 615 727 616 725 616 722 619 722 620 719 623 718 623 717 624 716 624 715 625 714 625 713 626 712 626 711 627 710 627 709 628 707 628 706 629 705 629 704 630 700 630 699 631 696 631 695 632 689 632 688 633 685 633 684 634 682 634 681 635 680 635 679 636 678 636 677 637 675 637 674 638 672 638 671 639 669 639 668 640 665 640 664 641 661 641 660 642 656 642 655 643 649 643 648 644 643 644 642 645 640 645 639 646 637 646 636 647 630 647 629 648 627 648 626 649 624 649 623 650 621 650 620 651 615 651 614 652 613 652 612 653 611 653 610 654 608 654 607 655 605 655 604 656 601 656 600 657 593 657 592 658 590 658 589 659 587 659 586 660 583 660 582 661 580 661 579 662 578 662 577 663 575 663 574 664 573 664 572 665 571 665 570 666 569 666 568 667 566 667 565 668 563 668 562 669 559 669 558 670 550 670 549 671 547 671 546 672 543 672 542 673 538 673 537 674 536 674 535 675 534 675 533 676 530 676 529 677 528 677 527 678 526 678 525 679 523 679 522 680 521 680 520 681 519 681 518 682 516 682 515 683 510 683 509 684 504 684 503 685 501 685 500 686 498 686 497 687 496 687 495 688 494 688 493 689 492 689 491 690 490 690 489 691 488 691 487 692 484 692 483 693 478 693 477 694 473 694 472 695 470 695 469 696 467 696 466 697 464 697 463 698 462 698 461 699 460 699 459 700 457 700 456 701 455 701 454 702 452 702 451 703 449 703 447 705 446 705 445 706 444 706 441 709 440 709 439 710 436 710 435 711 433 711 432 712 429 712 428 713 426 713 425 714 424 714 423 715 421 715 420 716 419 716 417 718 416 718 415 719 414 719 412 721 411 721 410 722 408 722 407 723 404 723 403 724 402 724 401 725 400 725 399 726 397 726 396 727 392 727 391 728 389 728 388 729 384 729 383 730 380 730 379 731 378 731 377 732 375 732 374 733 373 733 372 734 371 734 370 735 368 735 367 736 365 736 364 737 363 737 362 738 361 738 360 739 359 739 358 740 357 740 356 741 355 741 354 742 353 742 352 743 351 743 350 744 349 744 348 745 347 745 346 746 341 746 340 747 338 747 337 748 335 748 334 749 331 749 330 750 326 750 325 751 320 751 319 752 316 752 315 753 312 753 311 754 309 754 308 755 306 755 305 756 301 756 300 757 298 757 297 758 296 758 295 759 292 759 291 760 290 760 289 761 288 761 287 762 286 762 285 763 284 763 281 766 273 766 267 772 266 772 265 773 264 773 262 775 259 775 257 777 256 777 255 778 254 778 253 779 252 779 251 780 250 780 249 781 248 781 247 782 246 782 245 783 244 783 242 785 241 785 240 786 239 786 237 788 236 788 235 789 233 789 232 790 231 790 229 792 228 792 227 793 222 793 221 794 220 794 211 803 210 803 207 806 207 807 206 808 206 812 207 813 207 816 205 818 204 818 199 823 199 831 200 832 200 833 202 835 202 837 203 838 203 840 204 841 204 842 205 843 205 844 206 845 206 846 207 847 207 853 208 854 208 856 210 858 210 859 211 860 212 860 218 866 219 866 220 867 226 867 227 866 230 866 231 865 233 865 234 864 237 864 238 863 245 863 246 862 249 862 250 863 253 863 254 864 255 864 256 865 258 865 259 866 264 866 265 867 269 867 270 868 275 868 276 869 282 869 283 870 293 870 294 871 296 871 297 872 299 872 300 873 305 873 306 874 309 874 310 873 315 873 316 874 318 874 319 875 321 875 322 876 323 876 324 877 325 877 326 878 329 878 330 879 335 879 336 880 339 880 340 881 344 881 345 882 349 882 350 883 355 883 356 884 360 884 361 885 362 885 363 886 364 886 365 887 366 887 367 888 375 888 376 889 381 889 382 890 385 890 386 891 389 891 390 892 396 892 397 893 403 893 404 894 408 894 409 895 421 895 422 896 429 896 430 897 438 897 439 898 442 898 443 899 446 899 447 900 464 900 465 901 472 901 473 902 479 902 480 903 494 903 495 904 497 904 498 905 502 905 503 906 507 906 508 907 511 907 512 908 517 908 518 909 524 909 525 910 545 910 546 911 550 911 551 912 556 912 557 913 560 913 561 914 562 914 563 915 565 915 566 916 571 916 572 917 593 917 594 918 596 918 597 919 599 919 600 920 602 920 603 921 605 921 606 922 610 922 611 923 614 923 615 924 617 924 618 925 621 925 622 926 625 926 626 927 628 927 629 928 632 928 633 929 636 929 637 930 639 930 640 931 645 931 646 932 651 932 652 933 654 933 655 934 656 934 657 935 662 935 663 934 680 934 681 935 687 935 688 936 689 936 690 937 691 937 692 938 694 938 695 939 697 939 698 940 701 940 702 941 717 941 718 942 725 942 726 943 730 943 731 944 738 944 739 945 747 945 748 946 753 946 754 947 758 947 759 948 764 948 765 949 771 949 772 950 779 950 780 951 785 951 786 952 791 952 792 953 812 953 813 954 820 954 821 955 823 955 824 956 827 956 828 957 829 957 830 956 836 956 837 957 839 957 840 958 843 958 844 959 850 959 851 960 857 960 858 961 875 961 876 962 886 962 887 963 900 963 901 964 906 964 907 965 916 965 917 966 924 966 925 967 927 967 928 968 931 968 932 969 936 969 937 970 939 970 940 971 943 971 944 972 947 972 948 973 956 973 957 974 975 974 976 973 980 973 981 974 984 974 985 975 1012 975 1013 976 1016 976 1017 977 1025 977 1026 976 1030 976 1031 977 1033 977 1037 981 1038 981 1039 982 1046 982 1047 981 1049 981 1050 982 1056 982 1057 983 1059 983 1060 984 1062 984 1063 985 1069 985 1070 986 1080 986 1081 987 1086 987 1087 988 1091 988 1092 989 1095 989 1096 990 1100 990 1101 991 1127 991 1128 992 1137 992 1138 993 1142 993 1143 994 1149 994 1150 995 1160 995 1161 996 1165 996 1166 997 1168 997 1169 998 1172 998 1173 999 1177 999 1178 1000 1181 1000 1182 1001 1186 1001 1187 1002 1191 1002 1192 1003 1196 1003 1197 1004 1206 1004 1207 1005 1213 1005 1214 1006 1219 1006 1220 1007 1231 1007 1232 1008 1236 1008 1237 1009 1240 1009 1241 1010 1243 1010 1244 1011 1247 1011 1248 1012 1250 1012 1251 1013 1252 1013 1253 1014 1256 1014 1258 1012 1259 1012 1261 1010 1265 1010 1266 1011 1267 1011 1268 1012 1269 1012 1271 1014 1271 1015 1272 1016 1274 1016 1276 1014 1277 1014 1279 1012 1284 1012 1286 1014 1286 1015 1287 1016 1287 1017 1288 1018 1288 1019 1289 1020 1288 1021 1288 1025 1287 1026 1287 1030 1288 1030 1289 1031 1291 1031 1292 1032 1294 1032 1295 1033 1296 1033 1298 1035 1299 1035 1302 1038 1303 1038 1305 1040 1313 1040 1314 1039 1319 1039 1320 1038 1322 1038 1324 1036 1324 1035 1325 1034 1325 1033 1326 1032 1326 1028 1327 1027 1327 1023 1328 1022 1330 1022 1332 1024 1332 1025 1333 1026 1333 1027 1334 1028 1334 1029 1335 1030 1336 1030 1337 1031 1338 1031 1340 1029 1340 1026 1339 1025 1339 1023 1340 1022 1340 1021 1341 1020 1346 1020 1347 1021 1348 1021 1349 1022 1350 1022 1352 1024 1353 1024 1354 1025 1355 1025 1356 1026 1359 1026 1360 1027 1362 1027 1363 1028 1367 1028 1368 1029 1372 1029 1373 1030 1376 1030 1377 1031 1389 1031 1390 1032 1394 1032 1395 1033 1398 1033 1399 1034 1402 1034 1403 1035 1415 1035 1416 1036 1421 1036 1422 1037 1426 1037 1427 1038 1429 1038 1430 1039 1433 1039 1434 1040 1438 1040 1439 1041 1442 1041 1443 1042 1445 1042 1446 1043 1453 1043 1454 1044 1461 1044 1462 1045 1465 1045 1466 1046 1470 1046 1471 1047 1482 1047 1483 1048 1484 1048 1485 1049 1487 1049 1488 1050 1493 1050 1494 1051 1500 1051 1501 1052 1504 1052 1505 1053 1515 1053 1516 1054 1522 1054 1523 1055 1525 1055 1526 1056 1548 1056 1549 1057 1557 1057 1558 1058 1570 1058 1571 1059 1575 1059 1576 1060 1581 1060 1582 1061 1587 1061 1588 1062 1591 1062 1592 1063 1598 1063 1599 1062 1635 1062 1636 1063 1640 1063 1641 1064 1650 1064 1651 1065 1653 1065 1654 1066 1662 1066 1663 1067 1669 1067 1670 1068 1675 1068 1676 1069 1687 1069 1688 1070 1691 1070 1692 1071 1695 1071 1696 1072 1698 1072 1699 1073 1702 1073 1703 1074 1706 1074 1707 1075 1711 1075 1712 1076 1722 1076 1723 1077 1737 1077 1738 1078 1747 1078 1748 1079 1753 1079 1754 1080 1757 1080 1758 1081 1761 1081 1762 1082 1765 1082 1766 1083 1772 1083 1773 1084 1781 1084 1782 1085 1790 1085 1791 1086 1798 1086 1799 1087 1823 1087 1824 1088 1826 1088 1827 1089 1829 1089 1830 1088 1833 1088 1834 1087 1835 1087 1836 1088 1842 1088 1843 1089 1847 1089 1848 1090 1869 1090 1870 1091 1877 1091 1878 1092 1882 1092 1883 1093 1905 1093 1906 1094 1918 1094 1919 1095 1921 1095 1922 1096 1934 1096 1935 1097 1942 1097 1943 1098 1956 1098 1957 1099 1961 1099 1962 1100 1967 1100 1968 1101 1970 1101 1971 1102 1976 1102 1977 1103 1982 1103 1983 1104 1987 1104 1988 1105 1994 1105 1995 1106 2000 1106 2001 1107 2018 1107 2019 1108 2022 1108 2023 1109 2026 1109 2027 1110 2033 1110 2034 1111 2037 1111 2038 1112 2041 1112 2042 1113 2050 1113 2051 1114 2055 1114 2056 1115 2058 1115 2059 1116 2061 1116 2062 1117 2072 1117 2073 1118 2075 1118 2076 1119 2078 1119 2079 1120 2110 1120 2111 1121 2113 1121 2114 1122 2115 1122 2116 1123 2117 1123 2118 1124 2120 1124 2121 1125 2123 1125 2124 1126 2125 1126 2129 1130 2129 1131 2130 1132 2130 1133 2133 1136 2135 1136 2136 1137 2137 1137 2138 1138 2140 1138 2141 1139 2150 1139 2151 1138 2155 1138 2156 1137 2158 1137 2159 1138 2171 1138 2172 1137 2175 1137 2176 1136 2181 1136 2182 1135 2188 1135 2189 1134 2197 1134 2198 1135 2201 1135 2202 1136 2207 1136 2208 1137 2211 1137 2212 1138 2215 1138 2216 1139 2219 1139 2220 1140 2224 1140 2225 1141 2232 1141 2233 1142 2234 1142 2235 1143 2238 1143 2239 1144 2243 1144 2244 1145 2247 1145 2248 1146 2256 1146 2257 1147 2260 1147 2261 1148 2263 1148 2264 1149 2266 1149 2267 1150 2271 1150 2272 1151 2273 1151 2274 1152 2276 1152 2277 1153 2279 1153 2280 1154 2283 1154 2284 1155 2287 1155 2288 1156 2295 1156 2296 1157 2299 1157 2300 1158 2304 1158 2305 1159 2310 1159 2311 1160 2314 1160 2315 1161 2318 1161 2319 1162 2322 1162 2323 1163 2326 1163 2327 1164 2329 1164 2330 1165 2337 1165 2338 1166 2343 1166 2344 1167 2346 1167 2347 1168 2348 1168 2349 1169 2352 1169 2353 1170 2356 1170 2357 1171 2360 1171 2361 1172 2369 1172 2370 1173 2377 1173 2378 1174 2380 1174 2381 1175 2384 1175 2385 1176 2389 1176 2390 1177 2392 1177 2393 1178 2395 1178 2396 1179 2410 1179 2411 1180 2412 1180 2413 1181 2414 1181 2415 1182 2416 1182 2417 1183 2419 1183 2420 1184 2421 1184 2423 1186 2424 1186 2425 1187 2439 1187 2440 1188 2442 1188 2443 1189 2446 1189 2447 1190 2451 1190 2452 1191 2456 1191 2457 1192 2458 1192 2459 1193 2460 1193 2461 1194 2462 1194 2463 1195 2469 1195 2470 1194 2478 1194 2479 1195 2491 1195 2492 1196 2495 1196 2496 1195 2497 1195 2497 1194 2498 1193 2498 1191 2496 1189 2496 1187 2498 1185 2499 1185 2500 1186 2502 1186 2504 1188 2507 1188 2508 1187 2509 1187 2510 1186 2510 1185 2511 1184 2511 1182 2510 1181 2510 1180 2508 1178 2508 1177 2507 1176 2507 1170 2508 1169 2508 1168 2509 1167 2509 1166 2510 1165 2510 1161 2508 1159 2506 1159 2505 1160 2504 1160 2503 1161 2501 1161 2498 1158 2498 1154 2493 1149 2492 1149 2491 1148 2489 1148 2488 1147 2487 1147 2485 1145 2485 1144 2483 1142 2483 1141 2482 1140 2480 1140 2479 1139 2473 1139 2472 1140 2467 1140 2466 1141 2460 1141 2459 1142 2458 1142 2457 1141 2450 1141 2449 1140 2447 1140 2446 1139 2443 1139 2442 1138 2436 1138 2435 1137 2431 1137 2430 1136 2429 1136 2428 1135 2426 1135 2425 1134 2422 1134 2421 1133 2419 1133 2418 1132 2416 1132 2415 1131 2414 1131 2413 1130 2411 1130 2410 1129 2406 1129 2405 1128 2399 1128 2398 1127 2390 1127 2389 1126 2385 1126 2384 1125 2378 1125 2377 1124 2368 1124 2367 1123 2364 1123 2363 1122 2360 1122 2359 1121 2355 1121 2354 1120 2351 1120 2350 1119 2347 1119 2346 1118 2343 1118 2342 1117 2341 1117 2340 1116 2338 1116 2337 1115 2335 1115 2334 1114 2329 1114 2328 1113 2325 1113 2324 1112 2320 1112 2319 1111 2311 1111 2310 1110 2307 1110 2306 1111 2302 1111 2301 1110 2296 1110 2295 1109 2292 1109 2291 1108 2289 1108 2288 1107 2286 1107 2285 1106 2283 1106 2282 1105 2279 1105 2278 1104 2272 1104 2271 1103 2265 1103 2264 1102 2260 1102 2259 1101 2257 1101 2256 1100 2255 1100 2254 1099 2251 1099 2250 1098 2248 1098 2247 1097 2244 1097 2243 1096 2240 1096 2239 1095 2236 1095 2235 1094 2232 1094 2231 1093 2227 1093 2226 1092 2222 1092 2221 1091 2220 1091 2219 1090 2217 1090 2216 1089 2213 1089 2212 1088 2207 1088 2206 1087 2192 1087 2191 1086 2184 1086 2183 1085 2173 1085 2172 1084 2163 1084 2162 1083 2160 1083 2159 1082 2156 1082 2155 1081 2153 1081 2152 1080 2150 1080 2149 1079 2146 1079 2145 1078 2140 1078 2139 1077 2120 1077 2119 1076 2116 1076 2115 1075 2107 1075 2106 1074 2093 1074 2092 1073 2084 1073 2083 1072 2068 1072 2067 1071 2064 1071 2063 1070 2060 1070 2059 1069 2055 1069 2054 1068 2048 1068 2047 1067 2039 1067 2038 1066 2033 1066 2032 1065 2027 1065 2026 1064 2023 1064 2022 1063 2015 1063 2014 1062 2007 1062 2006 1061 2003 1061 2002 1060 1999 1060 1998 1059 1990 1059 1989 1058 1985 1058 1984 1057 1979 1057 1978 1056 1971 1056 1970 1055 1962 1055 1961 1054 1954 1054 1953 1053 1945 1053 1944 1052 1937 1052 1936 1051 1931 1051 1930 1050 1919 1050 1918 1049 1914 1049 1913 1048 1893 1048 1892 1047 1889 1047 1888 1046 1878 1046 1877 1045 1867 1045 1866 1046 1857 1046 1856 1045 1853 1045 1852 1044 1840 1044 1839 1043 1835 1043 1834 1042 1833 1043 1830 1043 1829 1042 1820 1042 1819 1041 1817 1041 1816 1042 1807 1042 1806 1041 1789 1041 1788 1040 1777 1040 1776 1039 1773 1039 1772 1038 1766 1038 1765 1037 1762 1037 1761 1036 1753 1036 1752 1035 1742 1035 1741 1034 1732 1034 1731 1033 1721 1033 1720 1032 1717 1032 1716 1031 1713 1031 1712 1030 1706 1030 1704 1028 1703 1028 1702 1027 1696 1027 1695 1026 1692 1026 1691 1025 1687 1025 1686 1024 1675 1024 1674 1023 1668 1023 1667 1022 1650 1022 1649 1021 1638 1021 1637 1020 1635 1020 1634 1021 1631 1021 1630 1020 1624 1020 1623 1019 1600 1019 1599 1018 1594 1018 1593 1017 1591 1017 1590 1016 1587 1016 1586 1015 1579 1015 1578 1014 1566 1014 1565 1013 1560 1013 1559 1012 1555 1012 1554 1011 1546 1011 1545 1012 1538 1012 1537 1011 1525 1011 1524 1010 1517 1010 1516 1009 1508 1009 1507 1008 1504 1008 1503 1007 1498 1007 1497 1006 1487 1006 1486 1005 1484 1005 1483 1004 1481 1004 1480 1003 1477 1003 1476 1002 1470 1002 1469 1001 1465 1001 1464 1000 1459 1000 1458 999 1452 999 1451 998 1437 998 1436 997 1434 997 1433 996 1431 996 1430 995 1426 995 1425 994 1417 994 1416 993 1413 993 1412 992 1409 992 1408 991 1404 991 1403 990 1401 990 1400 989 1398 989 1397 988 1390 988 1389 987 1382 987 1381 986 1375 986 1374 985 1372 985 1371 984 1368 984 1367 983 1366 983 1365 982 1364 982 1363 981 1361 981 1360 980 1353 980 1352 981 1347 981 1343 977 1343 970 1344 969 1344 965 1343 964 1343 963 1342 962 1342 954 1341 953 1341 935 1342 934 1342 931 1341 930 1341 927 1340 926 1340 925 1339 924 1339 919 1338 918 1338 903 1337 902 1337 882 1338 881 1338 871 1339 870 1339 865 1340 864 1340 862 1341 861 1341 858 1342 857 1342 853 1343 852 1343 850 1342 849 1342 843 1341 842 1341 835 1342 834 1342 824 1341 823 1341 820 1340 819 1340 811 1339 810 1339 803 1338 802 1338 797 1337 796 1337 795 1335 793 1335 792 1332 789 1332 787 1331 786 1331 775 1332 774 1332 771 1333 770 1333 768 1334 767 1334 764 1335 763 1335 761 1336 760 1336 757 1337 756 1337 752 1336 751 1336 745 1337 744 1337 742 1338 741 1338 740 1340 738 1340 737 1341 736 1341 731 1342 730 1342 727 1343 726 1343 725 1345 723 1346 723 1347 722 1347 721 1348 720 1348 714 1349 713 1349 692 1350 691 1350 664 1349 663 1349 654 1348 653 1348 649 1347 648 1347 645 1346 644 1346 641 1345 640 1345 620 1344 619 1344 615 1343 614 1343 598 1344 597 1344 584 1343 583 1343 574 1342 573 1342 565 1341 564 1341 562 1342 561 1342 557 1343 556 1343 553 1344 552 1344 527 1343 526 1343 517 1342 516 1342 507 1341 506 1341 497 1340 496 1340 490 1341 489 1341 484 1340 483 1340 481 1339 480 1339 478 1338 477 1338 475 1337 474 1337 467 1336 466 1336 464 1335 463 1335 461 1334 460 1334 453 1336 451 1340 451 1341 452 1343 452 1344 453 1345 453 1347 455 1347 461 1348 462 1349 462 1350 461 1350 457 1349 456 1349 455 1348 454 1349 453 1349 452 1351 450 1352 450 1353 449 1354 449 1355 450 1361 450 1365 446 1365 445 1367 443 1369 443 1370 442 1372 442 1373 443 1374 443 1375 444 1383 444 1384 443 1387 443 1388 442 1389 442 1390 441 1391 441 1392 440 1393 440 1394 439 1396 439 1397 438 1403 438 1404 437 1413 437 1414 436 1415 436 1416 435 1417 435 1418 434 1419 434 1421 432 1425 432 1426 431 1429 431 1430 430 1431 430 1433 428 1434 428 1435 427 1436 427 1437 426 1438 426 1439 425 1442 425 1443 424 1444 424 1445 423 1446 423 1447 422 1448 422 1449 421 1452 421 1453 420 1458 420 1459 419 1464 419 1465 418 1468 418 1469 417 1470 417 1471 416 1472 416 1473 415 1475 415 1476 414 1478 414 1479 413 1480 413 1481 412 1483 412 1485 410 1486 410 1487 409 1489 409 1490 408 1496 408 1497 407 1500 407 1501 406 1505 406 1506 405 1508 405 1510 403 1511 403 1514 400 1515 400 1516 399 1519 399 1520 398 1522 398 1523 397 1526 397 1527 396 1534 396 1535 395 1539 395 1540 394 1543 394 1544 393 1547 393 1548 392 1551 392 1552 391 1555 391 1556 390 1557 390 1558 389 1561 389 1562 388 1564 388 1565 387 1567 387 1568 386 1570 386 1571 385 1573 385 1574 384 1575 384 1576 383 1578 383 1579 382 1585 382 1586 381 1588 381 1589 380 1592 380 1593 379 1597 379 1598 378 1599 379 1609 379 1610 378 1611 378 1612 377 1612 376 1611 376 1610 375 1605 375 1604 374 1604 373 1605 372 1608 372 1609 373 1612 373 1613 374 1618 374 1619 373 1621 373 1622 372 1623 372 1624 371 1625 371 1626 370 1627 370 1631 366 1632 366 1633 365 1637 365 1638 364 1650 364 1651 363 1654 363 1655 362 1657 362 1658 361 1659 361 1660 360 1662 360 1663 359 1664 359 1665 358 1666 358 1668 356 1669 356 1670 355 1671 355 1672 354 1673 354 1674 353 1677 353 1678 352 1682 352 1683 351 1691 351 1692 350 1694 350 1695 349 1697 349 1698 348 1700 348 1701 347 1703 347 1704 346 1707 346 1708 345 1711 345 1712 344 1714 344 1715 343 1724 343 1725 342 1727 342 1728 341 1731 341 1732 340 1736 340 1737 339 1740 339 1741 338 1742 338 1743 337 1744 337 1746 335 1747 335 1748 334 1750 334 1751 333 1760 333 1761 332 1767 332 1768 331 1770 331 1773 328 1774 328 1776 326 1777 326 1778 325 1779 325 1780 324 1782 324 1783 323 1786 323 1787 322 1789 322 1790 321 1793 321 1794 320 1796 320 1797 319 1802 319 1803 318 1804 318 1805 317 1806 317 1807 316 1808 316 1809 315 1810 315 1811 314 1813 314 1814 313 1816 313 1818 311 1819 311 1820 310 1823 310 1824 309 1828 309 1829 308 1833 308 1834 307 1837 307 1838 306 1843 306 1844 305 1846 305 1847 304 1848 304 1849 303 1850 303 1852 301 1853 301 1854 300 1855 300 1857 298 1858 298 1859 297 1861 297 1862 296 1864 296 1865 295 1869 295 1870 294 1874 294 1875 293 1877 293 1878 292 1881 292 1882 291 1885 291 1886 290 1890 290 1891 289 1894 289 1895 288 1898 288 1899 287 1901 287 1902 286 1907 286 1908 285 1914 285 1915 284 1919 284 1920 283 1926 283 1927 282 1930 282 1931 283 1938 283 1939 282 1941 282 1942 281 1943 281 1944 280 1945 280 1946 279 1947 279 1948 278 1950 278 1951 277 1952 277 1953 276 1954 276 1956 274 1957 274 1958 273 1959 273 1961 271 1962 271 1963 270 1965 270 1966 269 1968 269 1969 268 1971 268 1972 267 1974 267 1975 266 1978 266 1979 265 1981 265 1982 264 1987 264 1988 263 1991 263 1992 262 1993 262 1994 261 1995 261 1996 260 1998 260 1999 259 2001 259 2002 258 2003 258 2004 257 2006 257 2007 256 2016 256 2017 255 2021 255 2022 254 2024 254 2025 253 2028 253 2029 252 2032 252 2033 251 2034 251 2036 249 2037 249 2039 247 2040 247 2041 246 2042 246 2043 245 2045 245 2046 244 2047 244 2048 243 2049 243 2050 242 2052 242 2053 241 2057 241 2058 240 2059 240 2060 239 2061 239 2062 238 2064 238 2065 237 2068 237 2069 236 2071 236 2072 235 2073 235 2074 234 2075 234 2076 233 2078 233 2080 231 2081 231 2082 230 2084 230 2085 229 2086 229 2087 228 2088 228 2089 227 2090 227 2091 226 2093 226 2094 225 2095 225 2096 224 2101 224 2102 223 2105 223 2106 222 2109 222 2110 221 2111 221 2112 220 2113 220 2116 217 2117 217 2119 215 2122 215 2123 214 2125 214 2126 213 2127 213 2128 212 2130 212 2131 211 2135 211 2136 210 2139 210 2140 209 2142 209 2144 207 2151 207 2152 206 2153 206 2154 205 2155 205 2156 204 2157 204 2158 203 2159 203 2160 202 2162 202 2163 201 2165 201 2166 200 2172 200 2173 199 2174 199 2175 198 2176 198 2177 197 2179 197 2180 196 2181 196 2182 195 2185 195 2186 194 2191 194 2192 193 2194 193 2196 191 2197 191 2198 190 2199 190 2200 189 2202 189 2203 188 2206 188 2207 187 2214 187 2215 186 2219 186 2220 185 2221 185 2222 184 2223 184 2224 183 2226 183 2227 182 2230 182 2231 181 2238 181 2239 180 2242 180 2243 179 2244 179 2245 178 2245 177 2246 176 2246 174 2247 173 2247 172 2248 171 2249 171 2251 169 2252 169 2253 168 2256 168 2257 167 2260 167 2261 166 2278 166 2279 165 2282 165 2283 164 2284 164 2284 163 2285 162 2285 159 2287 157 2288 157 2289 156 2290 156 2291 155 2294 155 2295 154 2297 154 2298 153 2299 153 2300 152 2301 152 2302 151 2307 151 2308 150 2309 150 2313 146 2314 146 2315 145 2324 145 2325 144 2329 144 2330 143 2333 143 2334 142 2342 142 2343 141 2345 141 2346 140 2347 140 2353 134 2353 133 2357 129 2357 128 2358 127 2358 126 2367 117 2367 114 2364 111 2364 110 2363 109 2363 108 2362 107 2362 103 2363 102 2363 100 2364 99 2364 97 2362 95 2360 95 2359 94 2357 94 2353 90 2353 89 2350 86 2347 86 2346 85 2341 85 2340 84 2335 84 2334 83 " style="stroke:pink"/><path d="M1309 1027 1310 1026 1313 1026 1315 1028 1315 1032 1313 1034 1308 1034 1306 1032 1306 1029 1308 1027 " style="stroke:pink"/><path d="M1294 1015 1297 1015 1299 1017 1299 1020 1298 1021 1294 1021 1293 1020 1293 1019 1292 1018 1292 1017 " style="stroke:pink"/><path d="M1340 717 1341 716 1342 716 1343 717 1343 720 1342 721 1341 721 1340 720 " style="stroke:pink"/><path d="M1295 615 1296 615 1298 617 1298 621 1294 625 1293 625 1292 624 1292 619 1293 618 1293 617 " style="stroke:pink"/><path d="M1273 475 1274 474 1280 474 1281 475 1282 475 1283 476 1291 476 1294 479 1294 501 1295 502 1295 515 1296 516 1296 539 1297 540 1297 550 1298 551 1298 555 1297 556 1297 559 1296 560 1296 566 1297 567 1297 577 1296 578 1296 592 1295 593 1295 596 1294 597 1294 598 1293 599 1293 602 1292 603 1292 607 1291 608 1291 609 1290 610 1290 613 1289 614 1289 617 1288 618 1288 625 1291 628 1292 628 1293 629 1294 629 1295 630 1296 630 1299 633 1299 634 1300 635 1300 637 1301 638 1301 640 1300 641 1300 652 1299 653 1299 655 1300 656 1300 657 1304 661 1304 662 1305 663 1305 667 1304 668 1304 669 1303 670 1303 674 1304 675 1304 676 1305 677 1305 688 1304 689 1304 690 1303 691 1303 692 1302 693 1302 701 1303 702 1303 710 1301 712 1301 713 1299 715 1299 718 1298 719 1298 725 1297 726 1297 728 1296 729 1296 731 1295 732 1295 733 1294 734 1294 736 1293 737 1293 738 1292 739 1292 740 1291 741 1291 742 1290 743 1290 746 1289 747 1289 752 1288 753 1288 755 1287 756 1287 763 1286 764 1286 769 1285 770 1285 779 1286 780 1286 782 1287 783 1287 785 1288 786 1288 789 1289 790 1289 793 1290 794 1290 795 1291 796 1291 797 1292 798 1292 802 1293 803 1293 811 1294 812 1294 817 1295 818 1295 823 1296 824 1296 831 1297 832 1297 849 1296 850 1296 858 1295 859 1295 874 1294 875 1294 879 1293 880 1293 888 1292 889 1292 896 1293 897 1293 900 1294 901 1294 904 1295 905 1295 912 1296 913 1296 917 1297 918 1297 922 1298 923 1298 930 1299 931 1299 967 1298 968 1298 969 1297 970 1295 970 1294 971 1290 971 1289 970 1280 970 1279 969 1273 969 1272 968 1269 968 1268 969 1262 969 1261 968 1258 968 1257 967 1255 967 1254 966 1245 966 1244 965 1232 965 1231 964 1225 964 1224 963 1218 963 1217 962 1211 962 1210 961 1204 961 1203 960 1197 960 1196 959 1193 959 1192 958 1190 958 1189 957 1186 957 1185 956 1180 956 1179 955 1175 955 1174 954 1168 954 1167 953 1158 953 1157 952 1152 952 1151 951 1147 951 1146 950 1137 950 1136 949 1130 949 1129 948 1122 948 1121 947 1114 947 1113 946 1110 946 1109 945 1103 945 1102 944 1097 944 1096 943 1089 943 1088 942 1074 942 1073 941 1067 941 1066 940 1062 940 1061 939 1056 939 1055 938 1051 938 1050 937 1043 937 1042 936 1035 936 1034 935 1031 935 1030 934 1017 934 1016 933 1006 933 1005 932 1001 932 1000 931 990 931 989 930 981 930 980 929 977 929 976 928 972 928 971 927 962 927 961 926 950 926 949 925 943 925 942 924 931 924 930 923 919 923 918 922 908 922 907 921 904 921 903 920 891 920 890 919 881 919 880 918 860 918 859 917 853 917 852 916 849 916 848 915 842 915 841 914 837 914 836 913 832 913 831 912 826 912 825 911 815 911 814 910 807 910 806 909 791 909 790 908 787 908 786 907 782 907 781 906 771 906 770 905 768 905 767 904 760 904 759 903 747 903 746 902 741 902 740 901 733 901 732 900 725 900 724 899 719 899 718 898 714 898 713 897 708 897 707 896 703 896 702 895 698 895 697 894 682 894 681 893 673 893 672 892 669 892 668 891 664 891 663 890 655 890 654 889 653 889 652 888 649 888 648 887 645 887 644 886 640 886 639 885 636 885 635 884 630 884 629 883 626 883 625 882 616 882 615 881 609 881 608 880 605 880 603 878 602 878 601 877 600 877 599 876 597 876 596 875 586 875 585 874 578 874 577 873 575 873 574 872 571 872 570 871 561 871 560 870 553 870 552 869 547 869 546 868 542 868 541 867 538 867 537 866 522 866 521 865 516 865 515 864 512 864 511 863 509 863 508 862 505 862 504 861 501 861 500 860 490 860 489 859 479 859 478 858 471 858 470 857 468 857 467 856 458 856 457 855 447 855 446 854 440 854 439 853 428 853 427 852 423 852 422 851 418 851 417 850 414 850 413 849 411 849 410 848 405 848 404 849 402 849 401 850 400 850 399 849 397 849 396 848 395 848 394 847 390 847 389 846 381 846 380 845 373 845 372 844 367 844 366 843 364 843 363 842 362 842 361 841 360 841 359 840 358 840 357 839 356 839 355 838 339 838 338 837 334 837 333 836 330 836 329 835 325 835 324 834 315 834 314 833 306 833 305 832 302 832 301 831 300 831 299 830 298 830 297 829 296 829 295 828 293 828 292 829 291 829 289 831 287 831 286 832 277 832 276 831 276 829 280 825 281 825 283 823 285 823 286 822 288 822 289 821 291 821 298 814 300 814 301 813 303 813 304 812 305 812 306 811 306 810 308 808 309 808 310 807 311 807 312 806 313 806 314 805 317 805 318 804 320 804 321 803 322 803 323 802 324 802 325 801 326 801 327 800 328 800 330 798 332 798 333 797 334 797 335 796 337 796 338 795 340 795 341 794 345 794 346 793 349 793 350 792 352 792 353 791 356 791 357 790 358 790 359 789 360 789 361 788 363 788 364 787 367 787 368 786 369 786 370 785 371 785 372 784 374 784 375 783 376 783 377 782 378 782 379 781 380 781 381 780 384 780 385 779 387 779 388 778 392 778 393 777 396 777 397 776 398 776 399 775 401 775 402 774 403 774 404 773 406 773 407 772 408 772 409 771 410 771 411 770 412 770 413 769 414 769 415 768 416 768 417 767 419 767 420 766 422 766 423 765 425 765 426 764 428 764 429 763 431 763 432 762 434 762 435 761 437 761 438 760 440 760 441 759 442 759 443 758 444 758 445 757 447 757 448 756 449 756 450 755 452 755 453 754 454 754 455 753 456 753 457 752 459 752 460 751 462 751 463 750 465 750 466 749 467 749 468 748 472 748 473 747 479 747 480 746 482 746 483 745 485 745 486 744 488 744 489 743 490 743 491 742 492 742 493 741 494 741 495 740 498 740 499 739 501 739 502 738 510 738 511 737 514 737 515 736 516 736 517 735 519 735 520 734 521 734 523 732 524 732 525 731 527 731 528 730 529 730 530 729 531 729 532 728 534 728 537 725 538 725 539 724 540 724 541 723 545 723 546 722 548 722 549 721 555 721 556 720 558 720 559 719 560 719 565 714 567 714 568 713 571 713 572 712 574 712 575 711 577 711 578 710 579 710 580 709 583 709 584 708 586 708 587 707 589 707 590 706 597 706 598 705 600 705 601 704 602 704 604 702 606 702 607 701 610 701 611 700 614 700 615 699 618 699 619 698 623 698 624 697 625 697 626 696 627 696 628 695 631 695 632 694 641 694 642 693 644 693 645 692 646 692 647 691 648 691 649 690 650 690 651 689 654 689 655 688 658 688 659 687 664 687 665 686 667 686 668 685 671 685 672 684 673 684 674 683 675 683 676 682 678 682 679 681 680 681 681 680 682 680 683 679 684 679 685 678 687 678 688 677 689 677 690 676 693 676 694 675 696 675 697 674 701 674 702 673 705 673 706 672 710 672 711 671 712 671 713 670 715 670 716 669 718 669 719 668 720 668 722 666 723 666 724 665 726 665 727 664 728 664 729 663 733 663 734 662 737 662 738 661 741 661 742 660 744 660 745 659 746 659 747 658 750 658 751 657 753 657 754 656 756 656 757 655 759 655 760 654 762 654 763 653 765 653 766 652 769 652 770 651 773 651 774 650 780 650 781 649 785 649 786 648 789 648 790 647 792 647 793 646 795 646 796 645 798 645 799 644 807 644 808 643 809 643 810 642 811 642 811 641 812 640 812 639 814 637 820 637 821 636 822 636 823 635 824 635 825 634 826 634 827 633 831 633 832 632 834 632 835 631 837 631 838 630 840 630 841 629 842 629 844 627 845 627 846 626 847 626 849 624 850 624 851 623 853 623 854 622 859 622 860 621 863 621 864 620 865 620 866 619 867 619 868 618 872 618 873 617 875 617 877 615 878 615 880 613 881 613 882 612 884 612 885 611 886 611 887 610 891 610 892 609 894 609 895 608 896 608 897 607 898 607 899 606 900 606 901 605 902 605 903 604 904 604 905 603 909 603 910 602 914 602 915 601 916 601 917 600 919 600 920 599 921 599 922 598 924 598 925 597 927 597 928 596 931 596 932 595 935 595 936 594 941 594 942 593 946 593 947 592 949 592 950 591 951 591 952 590 953 590 954 589 955 589 956 588 957 588 959 586 960 586 961 585 962 585 963 584 964 584 965 583 966 583 967 582 969 582 970 581 972 581 973 580 974 580 975 579 977 579 978 578 979 578 980 577 981 577 982 576 984 576 985 575 991 575 992 574 993 574 997 570 999 570 1000 569 1004 569 1005 568 1008 568 1009 567 1011 567 1012 566 1016 566 1017 565 1018 565 1019 564 1020 564 1021 563 1022 563 1023 562 1024 562 1025 561 1030 561 1031 560 1034 560 1035 559 1037 559 1038 558 1040 558 1041 557 1043 557 1044 556 1046 556 1047 555 1049 555 1050 554 1053 554 1054 553 1058 553 1059 552 1063 552 1064 551 1067 551 1068 550 1071 550 1072 549 1073 549 1075 547 1076 547 1077 546 1078 546 1079 545 1080 545 1081 544 1082 544 1083 543 1085 543 1086 542 1088 542 1089 541 1090 541 1091 540 1096 540 1097 539 1099 539 1101 537 1101 536 1106 531 1112 531 1113 532 1118 532 1119 531 1120 531 1121 530 1123 530 1124 529 1126 529 1126 528 1125 527 1128 524 1129 524 1130 523 1131 523 1132 522 1134 522 1135 521 1144 521 1145 520 1152 520 1153 519 1156 519 1157 518 1158 518 1159 517 1161 517 1162 516 1164 516 1165 515 1166 515 1168 513 1169 513 1170 512 1172 512 1173 511 1175 511 1176 510 1178 510 1180 508 1181 508 1182 507 1189 507 1190 506 1191 506 1192 505 1193 505 1194 504 1195 504 1196 503 1198 503 1199 502 1201 502 1202 501 1203 501 1204 500 1206 500 1207 499 1209 499 1210 498 1211 498 1212 497 1213 497 1214 496 1225 496 1226 495 1228 495 1233 490 1234 490 1235 489 1236 489 1237 488 1240 488 1241 487 1243 487 1245 485 1246 485 1247 484 1248 484 1250 482 1251 482 1252 481 1253 481 1254 480 1255 480 1256 479 1258 479 1259 478 1262 478 1263 477 1266 477 1267 476 1270 476 1271 475 " style="stroke:pink"/><path d="M1315 410 1316 409 1321 409 1323 411 1323 414 1320 417 1320 421 1323 424 1323 428 1320 431 1319 430 1318 430 1317 429 1317 428 1316 427 1316 423 1311 418 1311 417 1310 416 1311 415 1311 413 1314 410 " style="stroke:pink"/><path d="M2352 119 2353 118 2355 118 2357 120 2357 121 2355 123 2353 123 2352 122 " style="stroke:pink"/></svg>