<svg width="120" height="162" xmlns="http://www.w3.org/2000/svg"><path d="M192 70 191 71 181 71 180 72 175 72 174 73 171 73 170 74 167 74 166 75 163 75 162 76 161 76 160 77 158 77 157 78 155 78 154 79 153 79 152 80 151 80 150 81 149 81 148 82 147 82 146 83 145 83 143 85 142 85 141 86 140 86 137 89 136 89 133 92 132 92 121 103 121 104 117 108 117 109 115 111 115 112 113 114 113 115 111 117 111 118 110 119 110 120 109 121 109 122 108 123 108 124 107 125 107 126 106 127 106 128 105 129 105 131 104 132 104 134 103 135 103 136 102 137 102 139 101 140 101 143 100 144 100 147 99 148 99 151 98 152 98 156 97 157 97 162 96 163 96 171 95 172 95 207 96 208 96 216 97 217 97 222 98 223 98 227 99 228 99 231 100 232 100 235 101 236 101 238 102 239 102 242 103 243 103 244 104 245 104 247 105 248 105 249 106 250 106 252 107 253 107 254 108 255 108 256 109 257 109 258 110 259 110 260 112 262 112 263 113 264 113 265 115 267 115 268 118 271 118 272 122 276 122 277 131 286 132 286 135 289 136 289 139 292 140 292 142 294 143 294 144 295 145 295 146 296 147 296 148 297 149 297 150 298 151 298 152 299 153 299 154 300 155 300 156 301 158 301 159 302 161 302 162 303 164 303 165 304 167 304 168 305 171 305 172 306 176 306 177 307 183 307 184 308 215 308 216 307 221 307 222 306 226 306 227 305 230 305 231 304 234 304 235 303 237 303 238 302 239 302 240 301 242 301 243 300 244 300 245 299 248 299 250 301 251 301 254 304 255 304 257 306 258 306 261 309 262 309 264 311 265 311 267 313 268 313 271 316 272 316 274 318 275 318 276 319 277 319 279 321 280 321 281 322 282 322 283 323 285 323 286 324 287 324 288 325 289 325 290 326 292 326 293 327 295 327 295 326 296 325 296 324 297 323 297 322 298 321 298 320 299 319 299 318 300 317 300 316 301 315 301 314 302 313 302 312 303 311 303 310 304 309 304 308 305 307 305 306 306 305 306 304 307 303 307 302 308 301 308 299 309 298 309 297 310 296 310 295 309 294 308 294 307 293 305 293 304 292 303 292 302 291 301 291 300 290 299 290 298 289 297 289 296 288 295 288 294 287 293 287 291 285 290 285 289 284 288 284 286 282 285 282 283 280 282 280 280 278 279 278 276 275 278 273 278 272 280 270 280 269 282 267 282 266 284 264 284 263 286 261 286 260 287 259 287 258 288 257 288 256 289 255 289 254 290 253 290 252 291 251 291 250 292 249 292 248 293 247 293 245 294 244 294 242 295 241 295 239 296 238 296 236 297 235 297 232 298 231 298 228 299 227 299 223 300 222 300 217 301 216 301 209 302 208 302 170 301 169 301 162 300 161 300 156 299 155 299 151 298 150 298 147 297 146 297 143 296 142 296 140 295 139 295 137 294 136 294 134 293 133 293 131 292 130 292 129 291 128 291 127 290 126 290 125 289 124 289 123 288 122 288 121 287 120 287 119 286 118 286 117 285 116 285 115 283 113 283 112 281 110 281 109 278 106 278 105 264 91 263 91 260 88 259 88 257 86 256 86 254 84 253 84 252 83 251 83 250 82 249 82 247 80 245 80 244 79 243 79 242 78 241 78 240 77 238 77 237 76 235 76 234 75 232 75 231 74 228 74 227 73 223 73 222 72 217 72 216 71 206 71 205 70 " style="stroke:pink"/><path d="M193 110 194 109 203 109 204 110 211 110 212 111 215 111 216 112 218 112 219 113 220 113 221 114 223 114 224 115 225 115 227 117 228 117 229 118 230 118 233 121 234 121 242 129 242 130 245 133 245 134 247 136 247 137 248 138 248 139 249 140 249 141 250 142 250 143 251 144 251 145 252 146 252 148 253 149 253 151 254 152 254 154 255 155 255 158 256 159 256 164 257 165 257 171 258 172 258 206 257 207 257 213 256 214 256 218 255 219 255 222 254 223 254 226 253 227 253 229 252 230 252 231 251 232 251 234 250 235 250 236 249 237 249 238 248 239 248 240 247 241 247 242 245 244 245 245 243 247 243 248 242 249 241 249 240 248 239 248 236 245 235 245 232 242 231 242 229 240 228 240 226 238 225 238 224 237 223 237 221 235 220 235 219 234 218 234 217 233 216 233 215 232 214 232 213 231 212 231 211 230 210 230 209 229 208 229 207 228 206 228 205 227 203 227 202 226 200 226 200 228 199 229 199 230 198 231 198 232 197 233 197 234 196 235 196 237 195 238 195 239 194 240 194 241 193 242 193 243 192 244 192 245 191 246 191 248 190 249 190 250 189 251 189 252 190 253 192 253 193 254 194 254 195 255 196 255 197 256 198 256 199 257 200 257 201 258 202 258 203 259 204 259 205 260 206 260 208 262 209 262 211 264 212 264 215 267 214 268 212 268 211 269 208 269 207 270 187 270 186 269 183 269 182 268 180 268 179 267 177 267 176 266 175 266 174 265 173 265 172 264 171 264 170 263 169 263 166 260 165 260 154 249 154 248 152 246 152 245 150 243 150 242 149 241 149 240 148 239 148 238 147 237 147 236 146 235 146 234 145 233 145 231 144 230 144 228 143 227 143 224 142 223 142 220 141 219 141 215 140 214 140 207 139 206 139 173 140 172 140 166 141 165 141 160 142 159 142 156 143 155 143 153 144 152 144 150 145 149 145 147 146 146 146 144 147 143 147 142 148 141 148 140 149 139 149 138 151 136 151 135 153 133 153 132 157 128 157 127 161 123 162 123 166 119 167 119 169 117 170 117 171 116 172 116 173 115 174 115 175 114 176 114 177 113 178 113 179 112 182 112 183 111 186 111 187 110 " style="stroke:pink"/></svg>