<svg width="49" height="42" xmlns="http://www.w3.org/2000/svg"><path d="M646 120 645 121 643 121 642 122 641 122 641 123 639 125 638 125 635 128 635 129 633 131 631 131 630 132 629 132 628 133 625 133 624 134 622 134 621 135 618 135 617 136 616 136 615 137 614 136 610 136 609 137 608 137 607 138 606 138 605 139 603 139 602 140 599 140 599 141 597 143 593 143 592 144 589 144 588 145 586 145 585 146 584 146 583 147 581 147 580 148 578 148 577 149 575 149 574 150 571 150 570 151 568 151 567 152 562 152 561 153 559 153 558 154 557 154 556 155 555 155 554 156 552 156 551 157 549 157 548 158 546 158 545 159 543 159 542 160 540 160 539 161 537 161 536 162 535 162 534 163 531 163 530 164 529 164 528 165 525 165 524 166 522 166 521 167 519 167 518 168 514 168 513 169 512 169 511 170 510 170 509 171 507 171 506 172 505 172 504 173 498 173 497 174 496 174 495 175 493 175 492 176 489 176 488 177 482 177 481 178 480 178 479 179 476 179 475 180 472 180 471 181 469 181 468 182 466 182 465 183 463 183 462 184 460 184 459 185 456 185 455 186 453 186 452 187 451 187 450 188 449 188 448 189 445 189 444 190 443 190 442 191 439 191 438 192 437 192 436 193 433 193 432 194 429 194 428 195 424 195 423 196 419 196 418 197 415 197 414 198 409 198 408 199 401 199 400 200 396 200 395 201 393 201 392 202 389 202 388 203 385 203 384 204 379 204 378 205 377 205 376 206 374 206 373 207 371 207 370 208 369 208 368 209 366 209 365 210 361 210 360 211 357 211 356 212 354 212 353 213 351 213 350 214 345 214 344 215 342 215 341 216 339 216 338 217 335 217 334 218 332 218 330 220 328 220 327 221 326 221 324 223 323 223 322 224 321 224 320 225 315 225 313 227 309 227 308 228 304 228 303 229 299 229 298 230 296 230 295 231 293 231 292 232 290 232 289 233 284 233 283 234 280 234 278 236 275 236 274 237 273 237 271 239 268 239 267 240 265 240 264 241 259 241 258 242 255 242 254 243 253 243 252 244 250 244 249 245 247 245 246 246 242 246 241 247 237 247 236 248 232 248 231 249 227 249 226 250 224 250 223 251 222 251 221 252 218 252 217 253 215 253 214 254 211 254 210 255 209 255 208 256 207 256 206 257 204 257 203 258 198 258 197 259 195 259 194 260 193 260 192 261 191 261 190 262 186 262 185 263 182 263 181 264 179 264 178 265 177 265 174 268 172 268 171 269 167 269 166 270 162 270 161 271 158 271 157 272 155 272 154 273 151 273 150 274 149 274 148 275 146 275 145 276 141 276 139 278 136 278 135 279 133 279 132 280 130 280 129 281 126 281 125 282 122 282 121 283 117 283 116 282 115 282 114 283 112 283 104 291 104 293 103 294 103 295 104 296 104 303 105 304 105 313 106 314 106 319 105 320 105 328 104 329 104 352 103 353 103 357 104 358 104 360 105 361 105 362 106 363 106 365 105 366 105 372 104 373 104 409 103 410 103 420 100 423 100 427 101 428 101 443 100 444 100 450 99 451 99 453 98 454 98 455 101 458 109 458 110 459 112 459 113 460 114 460 115 461 118 461 119 462 123 462 124 463 127 463 128 464 130 464 131 465 133 465 134 466 137 466 138 467 143 467 144 468 151 468 152 469 155 469 156 470 161 470 162 471 164 471 165 472 168 472 169 473 173 473 174 474 177 474 178 475 181 475 182 476 188 476 189 477 194 477 195 478 199 478 200 479 204 479 205 480 206 480 207 481 209 481 210 482 212 482 213 483 220 483 221 484 226 484 227 485 229 485 230 486 233 486 234 487 241 487 242 488 243 488 244 489 245 489 246 490 250 490 251 491 253 491 254 492 257 492 258 493 261 493 262 494 266 494 267 495 268 495 269 496 270 496 271 497 273 497 274 498 275 498 276 499 278 499 279 500 283 500 284 501 285 501 286 502 292 502 293 503 296 503 297 504 298 504 299 505 300 505 301 506 303 506 304 507 307 507 308 508 311 508 312 509 315 509 316 510 318 510 319 511 320 511 321 512 326 512 327 513 329 513 330 514 331 514 332 515 335 515 336 516 337 516 338 517 339 517 340 518 343 518 344 519 346 519 347 520 348 520 349 521 353 521 354 522 357 522 358 523 359 523 361 525 362 525 364 527 365 527 366 528 367 528 368 529 369 529 370 530 371 530 372 531 373 531 374 532 378 532 379 533 380 533 381 534 382 534 383 535 384 535 386 537 387 537 389 539 393 539 394 540 395 540 397 542 398 542 399 543 400 543 401 544 402 544 403 545 405 545 406 546 407 546 408 547 409 547 410 548 412 548 413 549 415 549 416 550 417 550 418 551 419 551 420 552 421 552 422 553 423 553 424 554 427 554 428 555 430 555 431 556 433 556 434 557 436 557 437 558 438 558 439 559 442 559 443 560 446 560 447 561 449 561 450 562 451 562 452 563 453 563 455 565 456 565 457 566 459 566 460 567 463 567 464 568 466 568 467 569 470 569 471 570 475 570 476 571 478 571 479 572 480 572 481 573 482 573 483 574 485 574 486 575 488 575 489 576 492 576 493 577 497 577 498 578 500 578 501 579 502 579 504 581 505 581 506 582 507 582 508 583 510 583 511 584 512 584 513 585 515 585 516 586 518 586 519 587 520 587 521 588 524 588 525 589 528 589 529 590 530 590 531 591 533 591 534 592 535 592 536 593 537 593 538 594 540 594 541 595 543 595 544 596 546 596 547 597 548 597 549 598 551 598 552 599 556 599 557 600 558 600 559 601 561 601 562 602 563 602 564 603 565 603 566 604 567 604 568 605 572 605 573 606 575 606 576 607 577 607 578 608 579 608 580 609 581 609 583 611 584 611 585 612 586 612 587 613 588 613 589 614 591 614 592 615 594 615 595 616 597 616 598 617 602 617 603 618 608 618 609 619 612 619 613 620 617 620 618 621 622 621 623 622 628 622 629 623 630 623 632 625 633 625 634 626 636 626 637 627 638 627 640 629 641 629 642 630 643 630 644 631 645 631 646 632 648 632 649 633 652 633 653 632 655 632 656 631 657 631 659 629 659 628 662 625 661 624 661 621 660 620 660 619 659 618 659 617 658 616 658 605 657 604 657 597 656 596 656 594 655 593 655 592 654 591 654 590 653 589 653 588 652 587 652 582 651 581 651 561 650 560 650 548 649 547 649 543 648 542 648 539 647 538 647 531 646 530 646 529 645 528 645 526 644 525 644 520 643 519 643 510 642 509 642 507 641 506 641 504 640 503 640 494 641 493 641 476 639 474 639 473 638 472 638 471 637 470 637 465 634 462 634 461 633 460 633 459 632 458 632 457 631 456 630 456 629 455 628 455 627 454 626 454 625 453 620 453 619 452 614 452 613 451 613 450 611 448 604 448 603 447 601 447 600 446 598 446 597 445 594 445 593 444 591 444 590 443 589 443 588 442 587 442 586 441 585 441 584 440 583 440 582 439 580 439 579 438 576 438 575 437 573 437 572 436 571 436 570 435 569 435 568 434 567 434 566 433 565 433 564 432 563 432 562 431 558 431 557 430 556 430 555 429 553 429 552 428 550 428 549 427 548 427 547 426 544 426 543 425 542 425 541 424 540 424 539 423 537 423 536 422 534 422 533 421 532 421 530 419 526 419 525 418 522 418 521 417 519 417 518 416 516 416 515 415 514 415 513 414 510 414 509 413 507 413 506 412 505 412 504 411 502 411 501 410 500 410 499 409 498 409 497 408 496 408 495 407 492 407 491 406 490 406 488 404 486 404 485 403 484 403 482 401 481 401 480 400 476 400 475 399 474 399 473 398 470 398 469 397 467 397 466 396 465 396 463 394 461 394 460 393 457 393 456 392 454 392 452 390 451 390 450 389 449 389 448 388 446 388 444 386 441 386 440 385 437 385 436 384 435 384 434 383 433 383 432 382 431 382 430 381 425 381 424 380 423 380 422 379 421 379 420 378 418 378 417 377 414 377 413 376 412 376 411 375 411 367 410 366 410 361 409 360 409 355 408 354 408 351 410 349 410 345 411 344 412 344 412 341 411 340 411 338 412 337 412 323 414 321 416 321 417 322 419 320 421 320 422 319 423 319 424 318 426 318 427 317 431 317 432 316 435 316 436 315 437 315 438 314 440 314 441 313 450 313 451 312 457 312 458 311 459 311 460 310 462 310 463 309 465 309 466 308 469 308 470 307 473 307 474 306 478 306 479 305 488 305 489 304 494 304 496 302 497 302 498 301 499 301 500 300 501 300 502 299 506 299 507 298 511 298 512 297 517 297 518 296 523 296 524 295 529 295 530 294 535 294 536 293 539 293 540 292 544 292 545 291 552 291 553 290 556 290 557 289 563 289 564 288 568 288 569 287 573 287 574 286 578 286 579 285 583 285 584 284 589 284 590 283 592 283 593 282 596 282 597 281 602 281 603 280 607 280 608 279 609 280 616 280 617 281 619 281 620 280 621 280 622 279 623 279 624 278 625 278 626 277 628 277 629 276 631 276 632 275 633 275 633 272 635 270 635 269 636 268 636 267 637 266 637 263 638 262 638 259 639 258 639 255 640 254 640 246 641 245 641 243 642 242 642 241 643 240 643 236 644 235 644 230 645 229 645 220 646 219 646 209 647 208 647 203 648 202 648 200 649 199 649 194 650 193 650 190 649 189 649 186 650 185 650 184 651 183 651 181 652 180 652 175 653 174 653 169 654 168 654 167 655 166 655 165 654 164 654 152 655 151 655 147 656 146 656 133 655 132 655 131 654 130 654 129 653 128 653 127 649 123 649 122 647 120 " style="stroke:pink"/><path d="M334 328 335 328 336 329 335 330 335 331 333 333 332 333 331 332 331 331 " style="stroke:pink"/><path d="M306 324 307 323 312 323 313 324 313 325 314 326 314 331 315 332 315 335 316 336 316 349 317 350 317 357 318 358 318 361 315 364 311 364 309 362 306 362 305 361 300 361 299 360 297 360 296 359 294 359 293 358 290 358 289 357 288 357 287 356 283 356 282 355 281 355 280 354 273 354 270 351 270 347 273 344 274 344 278 340 278 339 279 338 280 338 281 337 282 337 285 334 287 334 288 333 291 333 292 332 293 332 293 331 294 330 296 330 297 329 298 329 300 327 302 327 305 324 " style="stroke:pink"/></svg>