<?xml version='1.0' encoding='ASCII' standalone='yes'?>
<svg xmlns="http://www.w3.org/2000/svg" width="3508" height="2480">
  <path d="M57 17 56 18 52 18 51 19 49 19 48 20 47 20 46 21 45 21 44 22 43 22 42 23 41 23 39 25 38 25 32 31 32 32 30 34 30 35 28 37 28 38 27 39 27 40 26 41 26 43 25 44 25 46 24 47 24 50 23 51 23 72 24 73 24 76 25 77 25 79 26 80 26 82 27 83 27 84 28 85 28 86 29 87 29 88 32 91 32 92 38 98 39 98 41 100 42 100 43 101 44 101 45 102 46 102 47 103 48 103 49 104 52 104 53 105 56 105 57 106 72 106 73 105 77 105 78 104 80 104 81 103 82 103 83 102 87 102 96 111 99 111 105 105 105 103 96 94 96 93 97 92 97 91 100 88 100 87 101 86 101 85 102 84 102 83 103 82 103 80 104 79 104 77 105 76 105 73 106 72 106 51 105 50 105 47 104 46 104 44 103 43 103 41 102 40 102 39 101 38 101 37 99 35 99 34 97 32 97 31 91 25 90 25 88 23 87 23 86 22 85 22 84 21 83 21 82 20 81 20 80 19 78 19 77 18 73 18 72 17 " style="stroke:pink"/>
  <path d="M57 33 58 32 71 32 72 33 74 33 76 35 77 35 84 42 84 43 85 44 85 45 86 46 86 48 87 49 87 51 88 52 88 59 89 60 89 64 88 65 88 71 87 72 87 75 86 76 86 77 85 78 85 79 83 81 81 81 74 74 72 74 67 79 67 80 65 82 72 89 72 90 71 91 59 91 58 90 56 90 55 89 54 89 53 88 52 88 45 81 45 80 44 79 44 78 43 77 43 75 42 74 42 72 41 71 41 65 40 64 40 60 41 59 41 52 42 51 42 49 43 48 43 46 44 45 44 44 45 43 45 42 53 34 54 34 55 33 " style="stroke:pink"/>
</svg>
