<?xml version='1.0' encoding='ASCII' standalone='yes'?>
<svg xmlns="http://www.w3.org/2000/svg" width="400" height="600">
  <path d="M409 192 408 193 407 193 402 198 402 199 400 201 397 198 396 198 395 197 394 197 393 196 390 196 389 195 388 196 385 196 384 197 383 197 377 203 377 204 375 206 374 206 373 205 372 205 371 204 369 204 368 203 363 203 362 204 360 204 359 205 358 205 357 206 356 206 351 211 351 212 350 213 350 214 349 215 349 216 348 217 348 218 347 219 347 221 346 222 346 228 345 229 345 231 346 232 346 233 344 235 343 235 342 236 341 236 337 240 337 241 336 242 336 243 335 244 335 247 334 248 334 256 335 257 335 259 336 260 336 262 338 264 338 265 340 267 340 268 339 269 339 270 338 271 338 274 337 275 337 284 338 285 338 287 339 288 339 289 340 290 340 291 344 295 345 295 346 296 349 296 350 297 351 297 352 298 352 299 354 301 354 302 356 304 356 305 358 307 359 307 362 310 363 310 364 311 366 311 367 312 375 312 376 311 378 311 380 309 381 309 382 308 385 311 385 312 390 317 391 317 392 318 393 318 394 319 396 319 397 320 402 320 403 319 405 319 406 318 407 318 414 311 414 310 416 308 416 306 417 305 417 304 418 303 418 302 419 301 420 302 421 302 422 303 424 303 425 304 430 304 431 303 433 303 435 301 436 301 439 298 439 297 441 295 441 294 442 293 442 291 443 290 443 288 444 287 444 282 446 280 448 280 450 278 451 278 456 273 456 272 457 271 457 270 458 269 458 268 459 267 459 266 460 265 460 262 461 261 461 246 460 245 460 243 459 242 459 240 458 239 458 238 457 237 458 236 458 222 457 221 457 219 456 218 456 216 453 213 453 212 450 209 449 209 447 207 447 206 446 205 446 203 445 202 445 201 444 200 444 199 442 197 442 196 440 194 439 194 438 193 437 193 436 192 430 192 429 193 428 193 426 195 425 195 424 196 424 197 423 198 422 198 418 194 417 194 415 192 " style="stroke:pink"/>
  <path d="M93 170 93 171 92 172 92 174 91 175 91 176 90 177 90 179 89 180 89 181 88 182 88 184 87 185 87 186 86 187 86 189 85 190 85 191 84 192 84 194 83 195 83 196 82 197 82 199 81 200 81 201 79 203 35 203 36 203 38 205 39 205 40 206 41 206 43 208 44 208 45 209 46 209 48 211 49 211 50 212 51 212 52 213 53 213 55 215 56 215 57 216 58 216 60 218 61 218 62 219 63 219 65 221 66 221 67 222 68 222 69 223 70 223 71 224 71 226 70 227 70 228 69 229 69 231 68 232 68 233 67 234 67 236 66 237 66 238 65 239 65 241 64 242 64 243 63 244 63 246 62 247 62 248 61 249 61 250 60 251 60 253 59 254 59 256 58 257 58 258 59 257 60 257 61 256 62 256 64 254 65 254 66 253 67 253 69 251 70 251 71 250 72 250 73 249 74 249 76 247 77 247 78 246 79 246 81 244 82 244 83 243 84 243 86 241 87 241 88 240 89 240 90 239 91 239 93 237 94 237 96 239 97 239 98 240 99 240 100 241 101 241 103 243 104 243 105 244 106 244 108 246 109 246 110 247 111 247 113 249 114 249 115 250 116 250 117 251 118 251 120 253 121 253 122 254 123 254 125 256 126 256 127 257 128 257 129 258 129 257 128 256 128 254 127 253 127 251 126 250 126 249 125 248 125 246 124 245 124 244 123 243 123 242 122 241 122 239 121 238 121 237 120 236 120 234 119 233 119 232 118 231 118 229 117 228 117 227 116 226 116 224 117 223 118 223 119 222 120 222 122 220 123 220 124 219 125 219 126 218 127 218 129 216 130 216 131 215 132 215 134 213 135 213 136 212 137 212 138 211 139 211 141 209 142 209 143 208 144 208 146 206 147 206 148 205 149 205 150 204 151 204 151 203 108 203 106 201 106 199 105 198 105 197 104 196 104 194 103 193 103 192 102 191 102 190 101 189 101 187 100 186 100 185 99 184 99 182 98 181 98 180 97 179 97 177 96 176 96 175 95 174 95 172 94 171 94 170 " style="stroke:pink"/>
  <path d="M126 255 127 254 128 255 127 256 " style="stroke:pink"/>
  <path d="M125 253 126 252 127 253 126 254 " style="stroke:pink"/>
  <path d="M115 249 116 248 117 249 116 250 " style="stroke:pink"/>
  <path d="M103 242 104 241 105 242 104 243 " style="stroke:pink"/>
  <path d="M88 238 89 237 90 238 89 239 " style="stroke:pink"/>
  <path d="M115 228 116 227 117 228 116 229 " style="stroke:pink"/>
  <path d="M118 220 119 219 120 220 119 221 " style="stroke:pink"/>
  <path d="M97 184 98 183 99 184 98 185 " style="stroke:pink"/>
  <path d="M459 47 458 48 453 48 452 49 449 49 448 50 446 50 445 51 444 51 443 52 442 52 441 53 440 53 438 55 437 55 429 63 429 64 427 66 427 67 426 68 426 69 425 70 425 71 424 72 424 74 423 75 423 80 422 81 422 87 423 88 423 93 424 94 424 96 425 97 425 98 426 99 426 100 427 101 427 102 429 104 429 105 437 113 438 113 440 115 441 115 442 116 443 116 444 117 445 117 446 118 448 118 449 119 451 119 452 120 457 120 458 121 466 121 467 120 471 120 472 119 475 119 476 118 477 118 478 117 480 117 482 115 483 115 484 114 485 114 488 111 489 111 492 108 492 107 496 103 496 102 497 101 497 100 498 99 498 98 499 97 499 95 500 94 500 91 501 90 501 78 500 77 500 74 499 73 499 71 498 70 498 69 497 68 497 67 495 65 495 64 492 61 492 60 490 58 489 58 485 54 484 54 483 53 482 53 481 52 480 52 479 51 478 51 477 50 475 50 474 49 472 49 471 48 466 48 465 47 " style="stroke:pink"/>
  <path d="M231 27 230 28 227 28 226 29 223 29 222 30 221 30 220 31 219 31 218 32 216 32 214 34 213 34 211 36 210 36 207 39 206 39 199 46 199 47 196 50 196 51 194 53 194 54 192 56 192 57 191 58 191 59 190 60 190 62 189 63 189 64 188 65 188 67 187 68 187 70 186 71 186 74 185 75 185 82 184 83 184 95 185 96 185 102 186 103 186 106 187 107 187 109 188 110 188 112 189 113 189 115 190 116 190 117 191 118 191 119 192 120 192 121 193 122 193 123 195 125 195 126 196 127 196 128 201 133 201 134 202 134 209 141 210 141 212 143 213 143 214 144 215 144 216 145 217 145 218 146 219 146 220 147 221 147 222 148 224 148 225 149 228 149 229 150 233 150 234 151 239 151 229 141 229 140 226 137 226 136 224 134 224 133 223 132 223 131 222 130 222 129 220 127 220 125 219 124 219 123 218 122 218 121 217 120 217 118 216 117 216 115 215 114 215 112 214 111 214 108 213 107 213 102 212 101 212 92 211 91 211 87 212 86 212 76 213 75 213 71 214 70 214 67 215 66 215 63 216 62 216 60 217 59 217 58 218 57 218 55 219 54 219 53 220 52 220 51 221 50 221 49 222 48 222 47 224 45 224 44 225 43 225 42 228 39 228 38 232 34 232 33 235 30 236 30 239 27 " style="stroke:pink"/>
</svg>
